<svg width="2000" height="2000" viewBox="0 0 2000 2000" xmlns="http://www.w3.org/2000/svg">
  <circle cx="1000" cy="1000" r="1000" fill="#F7931A"/>
  <path d="M1437.5,936.1c-35.7-151.1-173.1-202.3-313.7-217.6l0-218.5l-132.1,0l0,212.9c-34.7,0-70.2,0.7-105.6,1.4l0-214.3l-132,0l0,218.5c-28.7,0.6-56.8,1.2-84.2,1.2l0-0.5l-182.2,0l0,141.2c0,0,97.4-1.8,95.8,0c53.7,0,71.2,31.1,77.5,58.1l0,245.5l0,344.1c-2.4,17.2-12.6,44.7-49.2,44.7c1.7,1.5-95.8,0-95.8,0l-26.1,157.7l171.9,0c32,0,63.6,0.6,94.5,0.8l0,220.4l132,0l0-218.2c36.2,0.7,71.2,1.3,105.6,1.3l0,217l132.1,0l0-219.2c226.9-12.8,378.5-77.2,398.1-312.1C1544.9,1068.5,1462.8,1038.9,1437.5,936.1z M1006.9,1113.9c-82.9,0-228.2-26.1-228.2-117.1c0-87.8,145.3-116.5,228.2-116.5c84.8,0,230.7,30.5,230.7,116.5C1237.6,1087.8,1091.7,1113.9,1006.9,1113.9z M1006.9,1419.1c-100.7,0-275.8-31.7-275.8-141.8c0-106.2,175.1-141.2,275.8-141.2c102.6,0,277.7,36.8,277.7,141.2C1284.6,1387.4,1109.5,1419.1,1006.9,1419.1z" fill="white"/>
</svg>
