<svg width="2000" height="2000" viewBox="0 0 2000 2000" xmlns="http://www.w3.org/2000/svg">
  <circle cx="1000" cy="1000" r="1000" fill="#2775CA"/>
  <path d="M1275.2,976.1c0-145.7-89.8-195.1-269-214.5-130.5-14.3-156.5-43.7-156.5-95.1s41.4-86.4,124.1-86.4c73.5,0,128.3,23.6,151.9,67.9c7.2,13.7,20.1,22.2,35.9,22.2h64.3c26.6,0,46.5-24.3,40-50.2-25.2-100.4-109.8-175.3-220.6-187.5v-108c0-25.1-20.4-45.5-45.5-45.5h-58.9c-25.1,0-45.5,20.4-45.5,45.5v106.5c-137.7,16.5-223.5,100.7-223.5,219.8c0,141.5,85.7,190.8,265,210.2c131.3,16.5,160.5,39.4,160.5,98s-46.5,97.9-138.7,97.9c-108.7,0-146.5-45.8-167.3-91.5-8.6-19.4-27.9-31.5-49.3-31.5h-61.1c-26.6,0-46.5,24.3-40,50.2c27.3,105.5,118.4,180.3,233.2,194.6v107.3c0,25.1,20.4,45.5,45.5,45.5h58.9c25.1,0,45.5-20.4,45.5-45.5v-106.3C1193.3,1164.2,1275.2,1087.6,1275.2,976.1z" fill="white"/>
</svg>
